<svg width="18" height="22" viewBox="0 0 18 22" fill="none" xmlns="http://www.w3.org/2000/svg">
<path d="M9 4.18677V5.00784L14.9819 8.49757L15.6854 8.08669L9 4.18677Z" fill="#C9C9C9"/>
<path d="M9 18.966V19.7871L15.6854 15.8872L14.9819 15.4763L9 18.966Z" fill="#C9C9C9"/>
<path d="M14.9814 8.49755V15.4763L15.685 15.8872V8.08667L14.9814 8.49755Z" fill="#C9C9C9"/>
<path d="M8.9999 4.18677V5.00784L3.01797 8.49757L2.31445 8.08669L8.9999 4.18677Z" fill="#C9C9C9"/>
<path d="M8.9999 18.966V19.7871L2.31445 15.8872L3.01797 15.4763L8.9999 18.966Z" fill="#C9C9C9"/>
<path d="M3.01797 8.49755V15.4763L2.31445 15.8872V8.08667L3.01797 8.49755Z" fill="#C9C9C9"/>
<path d="M14.9824 15.4763V8.49754L9.00048 5.00781L3.01855 8.49754V15.4763L9.00048 18.966L14.9824 15.4763Z" fill="#C9C9C9"/>
<path d="M15.6854 8.0867L18 6.73696L9 1.4873V4.18678L15.6854 8.0867Z" fill="#C9C9C9"/>
<path d="M2.31456 8.0867L0 6.73696L9 1.4873V4.18678L2.31456 8.0867Z" fill="#C9C9C9"/>
<path d="M9 3.2356V4.05598L14.9819 7.54571L15.6854 7.13552L9 3.2356Z" fill="#222121"/>
<path d="M9 18.0142V18.8353L15.6854 14.9353L14.9819 14.5251L9 18.0142Z" fill="#222121"/>
<path d="M14.9814 7.54569V14.5251L15.685 14.9353V7.1355L14.9814 7.54569Z" fill="#222121"/>
<path d="M8.9999 3.2356V4.05598L3.01797 7.54571L2.31445 7.13552L8.9999 3.2356Z" fill="#222121"/>
<path d="M8.9999 18.0142V18.8353L2.31445 14.9353L3.01797 14.5251L8.9999 18.0142Z" fill="#222121"/>
<path d="M3.01797 7.54569V14.5251L2.31445 14.9353V7.1355L3.01797 7.54569Z" fill="#222121"/>
<path d="M14.9824 14.5251V7.54564L9.00048 4.05591L3.01855 7.54564V14.5251L9.00048 18.0141L14.9824 14.5251Z" fill="#603B31"/>
<path d="M15.6854 7.13548L18 5.78506L9 0.5354V3.23556L15.6854 7.13548Z" fill="#D3B578"/>
<path d="M15.6854 14.9353L9 18.8352V21.5354L18 16.285L15.6854 14.9353Z" fill="#804924"/>
<path d="M15.6855 7.13545V14.9353L18.0001 16.285V5.78503L15.6855 7.13545Z" fill="#906935"/>
<path d="M2.31456 7.13548L0 5.78506L9 0.5354V3.23556L2.31456 7.13548Z" fill="#F6E5CE"/>
<path d="M2.31456 14.9353L9 18.8352V21.5354L0 16.285L2.31456 14.9353Z" fill="#906935"/>
<path d="M2.31456 7.13545V14.9353L0 16.285V5.78503L2.31456 7.13545Z" fill="#D3B578"/>
<g style="mix-blend-mode:color">
<path d="M9 0.5354L0 5.78506V16.2851L9 21.5347L18 16.2851V5.78506L9 0.5354ZM14.9819 13.0446V11.3983V8.49822V13.0453V13.0446Z" fill="#FFDB43"/>
</g>
<g style="mix-blend-mode:multiply">
<path d="M9 0.5354L0 5.78506V16.2851L9 21.5347L18 16.2851V5.78506L9 0.5354ZM14.9819 13.0446V11.3983V8.49822V13.0453V13.0446Z" fill="#FFDB43"/>
</g>
</svg>
