<svg width="36" height="41" viewBox="0 0 36 41" fill="none" xmlns="http://www.w3.org/2000/svg">
<path d="M18.1299 7.10645V8.67039L29.6423 15.3175L30.9963 14.5349L18.1299 7.10645Z" fill="#C9C9C9"/>
<path d="M18.1299 35.2575V36.8214L30.9963 29.393L29.6423 28.6104L18.1299 35.2575Z" fill="#C9C9C9"/>
<path d="M29.6416 15.3175V28.6104L30.9955 29.3931V14.5349L29.6416 15.3175Z" fill="#C9C9C9"/>
<path d="M18.1294 7.10645V8.67039L6.61566 15.3175L5.26172 14.5349L18.1294 7.10645Z" fill="#C9C9C9"/>
<path d="M18.1294 35.2575V36.8214L5.26172 29.393L6.61566 28.6104L18.1294 35.2575Z" fill="#C9C9C9"/>
<path d="M6.61566 15.3175V28.6104L5.26172 29.3931V14.5349L6.61566 15.3175Z" fill="#C9C9C9"/>
<path d="M29.6414 28.6104V15.3175L18.129 8.67041L6.61523 15.3175V28.6104L18.129 35.2575L29.6414 28.6104Z" fill="#C9C9C9"/>
<path d="M30.9963 14.5349L35.4507 11.9639L18.1299 1.9646V7.10645L30.9963 14.5349Z" fill="#C9C9C9"/>
<path d="M5.26173 14.5349L0.808594 11.9639L18.1294 1.9646V7.10645L5.26173 14.5349Z" fill="#C9C9C9"/>
<path d="M18.1298 31.964L26.7896 26.9643V16.9637L18.1298 11.964L9.46875 16.9637V26.9643L18.1298 31.964V28.1904L23.5208 25.0769L18.1298 28.1904V31.964Z" fill="#C9C9C9"/>
<path d="M26.7896 16.9636L27.9975 27.6608L18.1299 31.9639L26.7896 26.9643V16.9636Z" fill="#C9C9C9"/>
<path d="M18.129 15.9163L12.8906 18.9398V24.9882L18.129 28.0117L23.3661 24.9882V18.9398L18.129 15.9163Z" fill="#C9C9C9"/>
<path d="M26.5415 26.8207V17.1071L24.585 21.9646L26.5415 26.8207Z" fill="#C9C9C9"/>
<path d="M23.3662 24.9881L26.5411 26.8208L24.5845 21.9646L23.3662 24.9881Z" fill="#C9C9C9"/>
<path d="M26.5411 17.1071L23.3662 18.9397L24.5845 21.9646L26.5411 17.1071Z" fill="#C9C9C9"/>
<path d="M24.5845 21.9645L23.3662 18.9397V24.9881L24.5845 21.9645Z" fill="#C9C9C9"/>
<path d="M23.367 24.9882L18.1299 28.0117L21.3569 27.5552L23.367 24.9882Z" fill="#C9C9C9"/>
<path d="M18.1299 28.0117V31.6783L21.3569 27.5552L18.1299 28.0117Z" fill="#C9C9C9"/>
<path d="M18.1299 31.6783L26.5418 26.8208L21.3569 27.5552L18.1299 31.6783Z" fill="#C9C9C9"/>
<path d="M21.3564 27.5552L26.5413 26.8208L23.3665 24.9882L21.3564 27.5552Z" fill="#C9C9C9"/>
<path d="M26.5418 17.1071L18.1299 12.2496L21.3569 16.3728L26.5418 17.1071Z" fill="#C9C9C9"/>
<path d="M21.3564 16.3727L23.3665 18.9397L26.5413 17.107L21.3564 16.3727Z" fill="#C9C9C9"/>
<path d="M18.1299 12.2496V15.9162L21.3569 16.3728L18.1299 12.2496Z" fill="#C9C9C9"/>
<path d="M18.1299 15.9163L23.367 18.9398L21.3569 16.3728L18.1299 15.9163Z" fill="#C9C9C9"/>
<path d="M9.71582 26.8207V17.1071L11.6724 21.9646L9.71582 26.8207Z" fill="#C9C9C9"/>
<path d="M12.8907 24.9881L9.71582 26.8208L11.6724 21.9646L12.8907 24.9881Z" fill="#C9C9C9"/>
<path d="M9.71582 17.1071L12.8907 18.9397L11.6724 21.9646L9.71582 17.1071Z" fill="#C9C9C9"/>
<path d="M11.6729 21.9645L12.8911 18.9397V24.9881L11.6729 21.9645Z" fill="#C9C9C9"/>
<path d="M12.8906 24.9882L18.129 28.0117L14.9007 27.5552L12.8906 24.9882Z" fill="#C9C9C9"/>
<path d="M18.1297 28.0117V31.6783L14.9014 27.5552L18.1297 28.0117Z" fill="#C9C9C9"/>
<path d="M18.129 31.6783L9.71582 26.8208L14.9007 27.5552L18.129 31.6783Z" fill="#C9C9C9"/>
<path d="M14.9007 27.5552L9.71582 26.8208L12.8907 24.9882L14.9007 27.5552Z" fill="#C9C9C9"/>
<path d="M9.71582 17.1071L18.129 12.2496L14.9007 16.3728L9.71582 17.1071Z" fill="#C9C9C9"/>
<path d="M14.9007 16.3727L12.8907 18.9397L9.71582 17.107L14.9007 16.3727Z" fill="#C9C9C9"/>
<path d="M18.1297 12.2496V15.9162L14.9014 16.3728L18.1297 12.2496Z" fill="#C9C9C9"/>
<path d="M18.129 15.9163L12.8906 18.9398L14.9007 16.3728L18.129 15.9163Z" fill="#C9C9C9"/>
<path d="M18.1299 5.29468V6.85732L29.6423 13.5044L30.9963 12.7231L18.1299 5.29468Z" fill="#222121"/>
<path d="M18.1299 33.4444V35.0083L30.9963 27.5799L29.6423 26.7986L18.1299 33.4444Z" fill="#222121"/>
<path d="M29.6416 13.5043V26.7985L30.9955 27.5799V12.723L29.6416 13.5043Z" fill="#222121"/>
<path d="M18.1294 5.29468V6.85732L6.61566 13.5044L5.26172 12.7231L18.1294 5.29468Z" fill="#222121"/>
<path d="M18.1294 33.4444V35.0083L5.26172 27.5799L6.61566 26.7986L18.1294 33.4444Z" fill="#222121"/>
<path d="M6.61566 13.5043V26.7985L5.26172 27.5799V12.723L6.61566 13.5043Z" fill="#222121"/>
<path d="M29.6414 26.7986V13.5044L18.129 6.8573L6.61523 13.5044V26.7986L18.129 33.4444L29.6414 26.7986Z" fill="#603B31"/>
<path d="M30.9963 12.7231L35.4507 10.1508L18.1299 0.151489V5.29464L30.9963 12.7231Z" fill="#D3B578"/>
<path d="M30.9963 27.58L18.1299 35.0084V40.1515L35.4507 30.1509L30.9963 27.58Z" fill="#804924"/>
<path d="M30.9961 12.7231V27.58L35.4505 30.1509V10.1509L30.9961 12.7231Z" fill="#906935"/>
<path d="M5.26173 12.7231L0.808594 10.1508L18.1294 0.151489V5.29464L5.26173 12.7231Z" fill="#F6E5CE"/>
<path d="M5.26173 27.58L18.1294 35.0084V40.1515L0.808594 30.1509L5.26173 27.58Z" fill="#906935"/>
<path d="M5.26173 12.7231V27.58L0.808594 30.1509V10.1509L5.26173 12.7231Z" fill="#D3B578"/>
<path d="M18.1298 30.1509L26.7896 25.1512V15.1519L18.1298 10.1509L9.46875 15.1519V25.1512L18.1298 30.1509V26.3773L23.5208 23.2638L18.1298 26.3773V30.1509Z" fill="#222121"/>
<path d="M26.7896 15.1519L27.9975 25.8477L18.1299 30.1509L26.7896 25.1512V15.1519Z" fill="#222121"/>
<path d="M18.129 14.1031L12.8906 17.128V23.1751L18.129 26.1986L23.3661 23.1751V17.128L18.129 14.1031Z" fill="url(#paint0_linear_2259_55431)"/>
<path d="M26.5415 25.0089V15.2939L24.585 20.1514L26.5415 25.0089Z" fill="#906935"/>
<path d="M23.3662 23.175L26.5411 25.009L24.5845 20.1515L23.3662 23.175Z" fill="#D3B578"/>
<path d="M26.5411 15.2939L23.3662 17.1279L24.5845 20.1514L26.5411 15.2939Z" fill="#D3B578"/>
<path d="M24.5845 20.1515L23.3662 17.1279V23.175L24.5845 20.1515Z" fill="#906935"/>
<path d="M23.367 23.175L18.1299 26.1986L21.3569 25.7421L23.367 23.175Z" fill="#D3B578"/>
<path d="M18.1299 26.1986V29.8652L21.3569 25.7421L18.1299 26.1986Z" fill="#804924"/>
<path d="M18.1299 29.8652L26.5418 25.009L21.3569 25.7421L18.1299 29.8652Z" fill="#61371B"/>
<path d="M21.3564 25.7421L26.5413 25.009L23.3665 23.175L21.3564 25.7421Z" fill="#804924"/>
<path d="M26.5418 15.2939L18.1299 10.4377L21.3569 14.5609L26.5418 15.2939Z" fill="#D3B578"/>
<path d="M21.3564 14.5609L23.3665 17.1279L26.5413 15.294L21.3564 14.5609Z" fill="#F6E5CE"/>
<path d="M18.1299 10.4377V14.103L21.3569 14.5609L18.1299 10.4377Z" fill="#FFFAD4"/>
<path d="M18.1299 14.1031L23.367 17.128L21.3569 14.561L18.1299 14.1031Z" fill="#D3B578"/>
<path d="M9.71582 25.0089V15.2939L11.6724 20.1514L9.71582 25.0089Z" fill="#D3B578"/>
<path d="M12.8907 23.175L9.71582 25.009L11.6724 20.1515L12.8907 23.175Z" fill="#906935"/>
<path d="M9.71582 15.2939L12.8907 17.1279L11.6724 20.1514L9.71582 15.2939Z" fill="#FFFAD4"/>
<path d="M11.6729 20.1515L12.8911 17.1279V23.175L11.6729 20.1515Z" fill="#D3B578"/>
<path d="M12.8906 23.175L18.129 26.1986L14.9007 25.7421L12.8906 23.175Z" fill="#FFFAD4"/>
<path d="M18.1297 26.1986V29.8652L14.9014 25.7421L18.1297 26.1986Z" fill="#D3B578"/>
<path d="M18.129 29.8652L9.71582 25.009L14.9007 25.7421L18.129 29.8652Z" fill="#906935"/>
<path d="M14.9007 25.7421L9.71582 25.009L12.8907 23.175L14.9007 25.7421Z" fill="#D3B578"/>
<path d="M9.71582 15.2939L18.129 10.4377L14.9007 14.5609L9.71582 15.2939Z" fill="#F6E5CE"/>
<path d="M14.9007 14.5609L12.8907 17.1279L9.71582 15.294L14.9007 14.5609Z" fill="#D3B578"/>
<path d="M18.1297 10.4377V14.103L14.9014 14.5609L18.1297 10.4377Z" fill="#D3B578"/>
<path d="M18.129 14.1031L12.8906 17.128L14.9007 14.561L18.129 14.1031Z" fill="#FFFAD4"/>
<g style="mix-blend-mode:color">
<path d="M18.1294 40.1515L35.4502 30.1521V10.1508L18.1294 0.151489L0.808594 10.1508V30.1508L18.1294 40.1502V40.1515Z" fill="#FFDB43"/>
</g>
<g style="mix-blend-mode:multiply">
<path d="M18.1294 40.1515L35.4502 30.1521V10.1508L18.1294 0.151489L0.808594 10.1508V30.1508L18.1294 40.1502V40.1515Z" fill="#FFDB43"/>
</g>
<defs>
<linearGradient id="paint0_linear_2259_55431" x1="15.9311" y1="16.5619" x2="20.4182" y2="23.8925" gradientUnits="userSpaceOnUse">
<stop stop-color="#D3B578"/>
<stop offset="1" stop-color="#F6E5CE"/>
</linearGradient>
</defs>
</svg>
