<svg width="36" height="41" viewBox="0 0 36 41" fill="none" xmlns="http://www.w3.org/2000/svg">
<path d="M18.1299 7.72253V9.28648L29.6423 15.9336L30.9963 15.151L18.1299 7.72253Z" fill="#C9C9C9"/>
<path d="M18.1299 35.8735V37.4375L30.9963 30.0091L29.6423 29.2264L18.1299 35.8735Z" fill="#C9C9C9"/>
<path d="M29.6416 15.9336V29.2265L30.9955 30.0091V15.151L29.6416 15.9336Z" fill="#C9C9C9"/>
<path d="M18.1294 7.72253V9.28648L6.61697 15.9336L5.26172 15.151L18.1294 7.72253Z" fill="#C9C9C9"/>
<path d="M18.1294 35.8735V37.4375L5.26172 30.0091L6.61697 29.2264L18.1294 35.8735Z" fill="#C9C9C9"/>
<path d="M6.61697 15.9336V29.2265L5.26172 30.0091V15.151L6.61697 15.9336Z" fill="#C9C9C9"/>
<path d="M29.642 29.2265V15.9336L18.1296 9.2865L6.61719 15.9336V29.2265L18.1296 35.8736L29.642 29.2265Z" fill="#C9C9C9"/>
<path d="M30.9963 15.151L35.4507 12.58L18.1299 2.58069V7.72254L30.9963 15.151Z" fill="#C9C9C9"/>
<path d="M5.26174 15.151L0.808594 12.58L18.1294 2.58069V7.72254L5.26174 15.151Z" fill="#C9C9C9"/>
<path d="M18.1292 27.3808L12.8856 30.0665L13.8195 24.2503L9.64551 20.0932L15.4656 19.1841L18.1292 13.9301L20.7927 19.1841L26.6128 20.0932L22.4375 24.2503L23.3728 30.0665L18.1292 27.3808Z" fill="#C9C9C9"/>
<path d="M26.2319 20.2172L20.6727 19.3485L18.1292 14.3306L15.5856 19.3485L10.0264 20.2172L14.0138 24.1877L13.1216 29.7431L18.1292 27.1774L23.1367 29.7431L22.2444 24.1877L26.2319 20.2172Z" fill="#C9C9C9"/>
<path d="M12.8857 30.0664L19.4011 28.3734L23.3729 30.0664L18.1293 27.3807L12.8857 30.0664Z" fill="#C9C9C9"/>
<path d="M26.6128 20.0933L23.1366 25.5103L23.3727 30.0665L22.4375 24.2503L26.6128 20.0933Z" fill="#C9C9C9"/>
<path d="M22.2452 24.1877L26.2327 20.2172L18.1299 22.4868L22.2452 24.1877Z" fill="#C9C9C9"/>
<path d="M20.6734 19.3485L18.1299 14.3306V22.4868L20.6734 19.3485Z" fill="#C9C9C9"/>
<path d="M26.2327 20.2171L20.6734 19.3484L18.1299 22.4867L26.2327 20.2171Z" fill="#C9C9C9"/>
<path d="M18.1295 22.4868V14.3306L15.5859 19.3485L18.1295 22.4868Z" fill="#C9C9C9"/>
<path d="M18.1296 22.4868L13.1221 29.7431L18.1296 27.1774V22.4868Z" fill="#C9C9C9"/>
<path d="M18.1299 27.1774L23.1374 29.7431L18.1299 22.4868V27.1774Z" fill="#C9C9C9"/>
<path d="M18.1292 22.4867L15.5856 19.3484L10.0264 20.2171L18.1292 22.4867Z" fill="#C9C9C9"/>
<path d="M18.1299 22.4868L23.1374 29.7431L22.2452 24.1877L18.1299 22.4868Z" fill="#C9C9C9"/>
<path d="M18.1296 22.4868L14.0143 24.1877L13.1221 29.7431L18.1296 22.4868Z" fill="#C9C9C9"/>
<path d="M18.1292 22.4868L10.0264 20.2172L14.0138 24.1877L18.1292 22.4868Z" fill="#C9C9C9"/>
<path d="M18.1299 5.91077V7.47341L29.6423 14.1205L30.9963 13.3392L18.1299 5.91077Z" fill="#222121"/>
<path d="M18.1299 34.0605V35.6244L30.9963 28.196L29.6423 27.4147L18.1299 34.0605Z" fill="#222121"/>
<path d="M29.6416 14.1204V27.4146L30.9955 28.196V13.3391L29.6416 14.1204Z" fill="#222121"/>
<path d="M18.1294 5.91077V7.47341L6.61697 14.1205L5.26172 13.3392L18.1294 5.91077Z" fill="#222121"/>
<path d="M18.1294 34.0605V35.6244L5.26172 28.196L6.61697 27.4147L18.1294 34.0605Z" fill="#222121"/>
<path d="M6.61697 14.1204V27.4146L5.26172 28.196V13.3391L6.61697 14.1204Z" fill="#222121"/>
<path d="M29.642 27.4147V14.1205L18.1296 7.47339L6.61719 14.1205V27.4147L18.1296 34.0605L29.642 27.4147Z" fill="#603B31"/>
<path d="M30.9963 13.3392L35.4507 10.7669L18.1299 0.767578V5.91073L30.9963 13.3392Z" fill="#D3B578"/>
<path d="M30.9963 28.196L18.1299 35.6245V40.7676L35.4507 30.767L30.9963 28.196Z" fill="#804924"/>
<path d="M30.9961 13.3392V28.196L35.4505 30.767V10.767L30.9961 13.3392Z" fill="#906935"/>
<path d="M5.26174 13.3392L0.808594 10.7669L18.1294 0.767578V5.91073L5.26174 13.3392Z" fill="#F6E5CE"/>
<path d="M5.26174 28.196L18.1294 35.6245V40.7676L0.808594 30.767L5.26174 28.196Z" fill="#906935"/>
<path d="M5.26174 13.3392V28.196L0.808594 30.767V10.767L5.26174 13.3392Z" fill="#D3B578"/>
<path d="M18.1292 25.5677L12.8856 28.2534L13.8195 22.4372L9.64551 18.2801L15.4656 17.371L18.1292 12.1169L20.7927 17.371L26.6128 18.2801L22.4375 22.4372L23.3728 28.2534L18.1292 25.5677Z" fill="#222121"/>
<path d="M26.2319 18.4041L20.6727 17.5367L18.1292 12.5175L15.5856 17.5367L10.0264 18.4041L14.0138 22.3746L13.1216 27.93L18.1292 25.3643L23.1367 27.93L22.2444 22.3746L26.2319 18.4041Z" fill="#906935"/>
<path d="M12.8857 28.2533L19.4011 26.5603L23.3729 28.2533L18.1293 25.5676L12.8857 28.2533Z" fill="#222121"/>
<path d="M26.6128 18.2802L23.1366 23.6972L23.3727 28.2534L22.4375 22.4372L26.6128 18.2802Z" fill="#222121"/>
<path d="M22.2452 22.3746L26.2327 18.4041L18.1299 20.675L22.2452 22.3746Z" fill="#804924"/>
<path d="M20.6734 17.5367L18.1299 12.5175V20.675L20.6734 17.5367Z" fill="#D3B578"/>
<path d="M26.2327 18.404L20.6734 17.5366L18.1299 20.6749L26.2327 18.404Z" fill="#F6E5CE"/>
<path d="M18.1295 20.675V12.5175L15.5859 17.5367L18.1295 20.675Z" fill="#F6E5CE"/>
<path d="M18.1296 20.6749L13.1221 27.9299L18.1296 25.3642V20.6749Z" fill="#804924"/>
<path d="M18.1299 25.3642L23.1374 27.9299L18.1299 20.6749V25.3642Z" fill="#906935"/>
<path d="M18.1292 20.6749L15.5856 17.5366L10.0264 18.404L18.1292 20.6749Z" fill="#FFFAD4"/>
<path d="M18.1299 20.6749L23.1374 27.9299L22.2452 22.3745L18.1299 20.6749Z" fill="#917049"/>
<path d="M18.1296 20.6749L14.0143 22.3745L13.1221 27.9299L18.1296 20.6749Z" fill="#F6E5CE"/>
<path d="M18.1292 20.675L10.0264 18.4041L14.0138 22.3746L18.1292 20.675Z" fill="#906935"/>
<g style="mix-blend-mode:color">
<path d="M18.1294 37.4375V40.7676L35.4502 30.7682V10.7669L18.1294 0.767578L0.808594 10.7669V30.7669L18.1294 40.7663V35.8723V37.4362V37.4375Z" fill="#FFDB43"/>
</g>
<g style="mix-blend-mode:multiply">
<path d="M18.1294 37.4375V40.7676L35.4502 30.7682V10.7669L18.1294 0.767578L0.808594 10.7669V30.7669L18.1294 40.7663V35.8723V37.4362V37.4375Z" fill="#FFDB43"/>
</g>
</svg>
