<svg width="33" height="33" viewBox="0 0 33 33" fill="none" xmlns="http://www.w3.org/2000/svg">
    <path d="M0.435547 16.5C0.435547 7.66347 7.59899 0.500031 16.4355 0.500031C25.2721 0.500031 32.4355 7.66347 32.4355 16.5C32.4355 25.3366 25.2721 32.5 16.4355 32.5C7.59899 32.5 0.435547 25.3366 0.435547 16.5Z" fill="#F0F2F9"/>
    <path d="M20.0675 12.5C18.3635 12.5 16.8406 13.4087 16.8406 15.0876C16.8406 17.0129 19.5415 17.1459 19.5415 18.1131C19.5415 18.5204 19.0878 18.885 18.313 18.885C17.2133 18.885 16.3914 18.3755 16.3914 18.3755L16.0398 20.0697C16.0398 20.0697 16.9865 20.5 18.2436 20.5C20.1066 20.5 21.5727 19.5467 21.5727 17.8392C21.5727 15.8046 18.8606 15.6757 18.8606 14.7779C18.8606 14.4588 19.233 14.1093 20.0056 14.1093C20.8774 14.1093 21.5886 14.4797 21.5886 14.4797L21.9327 12.8434C21.9327 12.8434 21.159 12.5 20.0675 12.5ZM4.47683 12.6236L4.43555 12.8705C4.43555 12.8705 5.15247 13.0055 5.79817 13.2747C6.62952 13.5835 6.68875 13.7632 6.82882 14.3215L8.35454 20.3726H10.3999L13.5509 12.6236H11.5102L9.48551 17.8923L8.65934 13.4263C8.58359 12.9152 8.19979 12.6237 7.72997 12.6237H4.47683V12.6236ZM14.3714 12.6236L12.7706 20.3727H14.7165L16.3118 12.6235H14.3715L14.3714 12.6236ZM25.2245 12.6236C24.7552 12.6236 24.5067 12.882 24.3242 13.3337L21.4733 20.3727H23.5139L23.9088 19.1995H26.3949L26.635 20.3727H28.4355L26.8646 12.6236H25.2245ZM25.4899 14.7172L26.0948 17.625H24.4743L25.49 14.7172H25.4899Z" fill="#1434CB"/>
</svg>
