<svg width="17" height="17" viewBox="0 0 17 17" fill="none" xmlns="http://www.w3.org/2000/svg">
    <path d="M0.920898 8.09088C0.920898 3.6726 4.50262 0.0908813 8.9209 0.0908813C13.3392 0.0908813 16.9209 3.6726 16.9209 8.09088C16.9209 12.5092 13.3392 16.0909 8.9209 16.0909C4.50262 16.0909 0.920898 12.5092 0.920898 8.09088Z" fill="#1772EC"/>
    <path d="M9.95973 14.0661V8.83629H11.7036L12.0358 6.67239H9.95973V5.26938C9.95973 4.67719 10.2489 4.10049 11.1785 4.10049H12.1219V2.26023C12.1219 2.26023 11.2663 2.11391 10.4469 2.11391C8.73748 2.11391 7.62024 3.15024 7.62024 5.02493V6.67411H5.71973V8.83801H7.62024V14.0679H9.95801L9.95973 14.0661Z" fill="white"/>
</svg>
