<svg width="17" height="17" viewBox="0 0 17 17" fill="none" xmlns="http://www.w3.org/2000/svg">
    <path d="M0.920898 8.09088C0.920898 3.6726 4.50262 0.0908813 8.9209 0.0908813C13.3392 0.0908813 16.9209 3.6726 16.9209 8.09088C16.9209 12.5092 13.3392 16.0909 8.9209 16.0909C4.50262 16.0909 0.920898 12.5092 0.920898 8.09088Z" fill="#C7507C"/>
    <path d="M12.0179 5.70069C12.3973 5.70069 12.7048 5.39317 12.7048 5.01382C12.7048 4.63447 12.3973 4.32695 12.0179 4.32695C11.6386 4.32695 11.3311 4.63447 11.3311 5.01382C11.3311 5.39317 11.6386 5.70069 12.0179 5.70069Z" fill="white"/>
    <path d="M8.96746 5.20671C7.37854 5.20671 6.08398 6.49954 6.08398 8.09019C6.08398 9.68084 7.37682 10.9737 8.96746 10.9737C10.5581 10.9737 11.8509 9.68084 11.8509 8.09019C11.8509 6.49954 10.5581 5.20671 8.96746 5.20671ZM8.96746 9.93562C7.94835 9.93562 7.12031 9.10759 7.12031 8.08847C7.12031 7.06935 7.94835 6.24132 8.96746 6.24132C9.98658 6.24132 10.8146 7.06935 10.8146 8.08847C10.8146 9.10759 9.98658 9.93562 8.96746 9.93562Z" fill="white"/>
    <path d="M11.2565 13.9431H6.58265C4.64426 13.9431 3.06738 12.3662 3.06738 10.4278V5.75397C3.06738 3.81558 4.64426 2.23871 6.58265 2.23871H11.2565C13.1949 2.23871 14.7734 3.81558 14.7734 5.75397V10.4278C14.7734 12.3662 13.1966 13.9431 11.2565 13.9431ZM6.58265 3.33873C5.25022 3.33873 4.16741 4.42155 4.16741 5.75397V10.4278C4.16741 11.7602 5.25022 12.843 6.58265 12.843H11.2565C12.5889 12.843 13.6717 11.7602 13.6717 10.4278V5.75397C13.6717 4.42155 12.5889 3.33873 11.2565 3.33873H6.58265Z" fill="white"/>
</svg>
