<svg width="17" height="17" viewBox="0 0 17 17" fill="none" xmlns="http://www.w3.org/2000/svg">
    <path d="M0.920898 8.09088C0.920898 3.6726 4.50262 0.0908813 8.9209 0.0908813C13.3392 0.0908813 16.9209 3.6726 16.9209 8.09088C16.9209 12.5092 13.3392 16.0909 8.9209 16.0909C4.50262 16.0909 0.920898 12.5092 0.920898 8.09088Z" fill="#25D366"/>
    <path d="M3.12988 13.8957L3.96308 10.7902C3.49139 9.93976 3.2435 8.98778 3.2435 8.02031C3.2435 4.85795 5.81539 2.28606 8.97775 2.28606C12.1401 2.28606 14.712 4.85795 14.712 8.02031C14.712 11.1827 12.1401 13.7546 8.97775 13.7546C8.02922 13.7546 7.09101 13.5153 6.25265 13.0591L3.12988 13.8957ZM6.40758 11.8954L6.60383 12.0124C7.32513 12.4428 8.14628 12.67 8.97775 12.67C11.5428 12.67 13.6275 10.5836 13.6275 8.02031C13.6275 5.45702 11.541 3.36887 8.97775 3.36887C6.41447 3.36887 4.32631 5.4553 4.32631 8.02031C4.32631 8.86727 4.56215 9.70047 5.0063 10.4321L5.1268 10.6301L4.662 12.3636L6.40586 11.8971L6.40758 11.8954Z" fill="white"/>
    <path fill-rule="evenodd" clip-rule="evenodd" d="M11.1104 8.81754C10.8746 8.67638 10.5682 8.51801 10.2893 8.63162C10.0758 8.71942 9.93983 9.05339 9.80211 9.22381C9.73153 9.31161 9.64718 9.32538 9.537 9.28062C8.73652 8.96215 8.12195 8.42677 7.68125 7.68998C7.60723 7.57464 7.61928 7.48512 7.71051 7.37839C7.84479 7.22173 8.01177 7.0427 8.04792 6.83096C8.08408 6.61921 7.98423 6.37132 7.89643 6.18368C7.78454 5.94267 7.65887 5.59838 7.41786 5.46238C7.19579 5.33671 6.90314 5.40729 6.70517 5.56739C6.36432 5.84455 6.19905 6.28008 6.20422 6.71217C6.20422 6.8344 6.22143 6.95662 6.24898 7.07541C6.31784 7.35945 6.44867 7.62628 6.59672 7.87934C6.70861 8.07042 6.82912 8.25462 6.95995 8.43193C7.3886 9.01379 7.92053 9.51991 8.53855 9.89691C8.84669 10.0863 9.17894 10.2515 9.52323 10.3652C9.90884 10.4925 10.2531 10.6251 10.668 10.5459C11.1036 10.4633 11.5339 10.193 11.7061 9.77297C11.7577 9.64902 11.7835 9.50958 11.7543 9.37875C11.6957 9.10675 11.3273 8.94493 11.107 8.8141L11.1104 8.81754Z" fill="white"/>
</svg>
