<svg width="17" height="17" viewBox="0 0 17 17" fill="none" xmlns="http://www.w3.org/2000/svg">
    <path d="M0.920898 8.09088C0.920898 3.6726 4.50262 0.0908813 8.9209 0.0908813C13.3392 0.0908813 16.9209 3.6726 16.9209 8.09088C16.9209 12.5092 13.3392 16.0909 8.9209 16.0909C4.50262 16.0909 0.920898 12.5092 0.920898 8.09088Z" fill="black"/>
    <path d="M9.61371 7.52194L12.3216 4.37335H11.6795L9.32794 7.10706L7.4498 4.37335H5.28418L8.12462 8.50663L5.28418 11.8084H5.9263L8.40867 8.9215L10.3918 11.8084H12.5574L9.61198 7.52194H9.61371ZM8.73403 8.5445L8.44654 8.13306L6.15697 4.85881H7.14338L8.99053 7.50128L9.27802 7.91272L11.6795 11.3488H10.6931L8.73231 8.54622L8.73403 8.5445Z" fill="white"/>
</svg>
