<svg width="17" height="17" viewBox="0 0 17 17" fill="none" xmlns="http://www.w3.org/2000/svg">
    <g clip-path="url(#clip0_1988_8558)">
        <g clip-path="url(#clip1_1988_8558)">
            <path d="M8.08691 16.0909C12.5052 16.0909 16.0869 12.5092 16.0869 8.09088C16.0869 3.6726 12.5052 0.0908813 8.08691 0.0908813C3.66864 0.0908813 0.0869141 3.6726 0.0869141 8.09088C0.0869141 12.5092 3.66864 16.0909 8.08691 16.0909Z" fill="#F0F0F0"/>
            <path d="M16.0872 8.09069C16.0872 4.91901 14.2414 2.17851 11.5654 0.884506V15.2968C14.2414 14.0029 16.0872 11.2624 16.0872 8.09069Z" fill="#D80027"/>
            <path d="M0.0869141 8.09069C0.0869141 11.2624 1.9327 14.0029 4.60866 15.2969V0.884506C1.9327 2.17851 0.0869141 4.91901 0.0869141 8.09069Z" fill="#6DA544"/>
            <path d="M6 8.0904C6 9.24299 6.93438 10.1774 8.08697 10.1774C9.23956 10.1774 10.1739 9.24299 10.1739 8.0904V7.39474H6V8.0904Z" fill="#6DA544"/>
            <path d="M10.869 6.69981H8.782C8.782 6.31562 8.47053 6.00415 8.08634 6.00415C7.70215 6.00415 7.39068 6.31562 7.39068 6.69981H5.30371C5.30371 7.08402 5.63837 7.39546 6.02252 7.39546H5.99937C5.99937 7.77968 6.31081 8.09112 6.69503 8.09112C6.69503 8.47533 7.00646 8.78677 7.39068 8.78677H8.782C9.16622 8.78677 9.47765 8.47533 9.47765 8.09112C9.86187 8.09112 10.1733 7.77968 10.1733 7.39546H10.1501C10.5343 7.39546 10.869 7.08402 10.869 6.69981Z" fill="#FF9811"/>
        </g>
    </g>
    <defs>
        <clipPath id="clip0_1988_8558">
            <path d="M0.0869141 8.09088C0.0869141 3.6726 3.66864 0.0908813 8.08691 0.0908813C12.5052 0.0908813 16.0869 3.6726 16.0869 8.09088C16.0869 12.5092 12.5052 16.0909 8.08691 16.0909C3.66864 16.0909 0.0869141 12.5092 0.0869141 8.09088Z" fill="white"/>
        </clipPath>
        <clipPath id="clip1_1988_8558">
            <rect width="16" height="16" fill="white" transform="translate(0.0869141 0.0908813)"/>
        </clipPath>
    </defs>
</svg>
