<svg width="17" height="17" viewBox="0 0 17 17" fill="none" xmlns="http://www.w3.org/2000/svg">
    <g clip-path="url(#clip0_1988_8570)">
        <g clip-path="url(#clip1_1988_8570)">
            <path d="M8.08691 16.0909C12.5052 16.0909 16.0869 12.5092 16.0869 8.09088C16.0869 3.6726 12.5052 0.0908813 8.08691 0.0908813C3.66864 0.0908813 0.0869141 3.6726 0.0869141 8.09088C0.0869141 12.5092 3.66864 16.0909 8.08691 16.0909Z" fill="#F0F0F0"/>
            <path d="M7.73926 8.09089H16.0871C16.0871 7.36883 15.9908 6.66933 15.8115 6.00392H7.73926V8.09089Z" fill="#D80027"/>
            <path d="M7.73926 3.91657H14.9129C14.4232 3.11745 13.797 2.41111 13.0669 1.82961H7.73926V3.91657Z" fill="#D80027"/>
            <path d="M8.08632 16.0909C9.9691 16.0909 11.6996 15.4402 13.0662 14.3518H3.10645C4.47301 15.4402 6.20354 16.0909 8.08632 16.0909Z" fill="#D80027"/>
            <path d="M1.2609 12.2642H14.9125C15.3057 11.6226 15.6106 10.9214 15.8111 10.1772H0.362305C0.562836 10.9214 0.867742 11.6226 1.2609 12.2642Z" fill="#D80027"/>
            <path d="M3.79266 1.34019H4.5217L3.84357 1.83285L4.1026 2.63001L3.42451 2.13735L2.74641 2.63001L2.97016 1.94135C2.3731 2.43869 1.84979 3.02138 1.41854 3.67063H1.65213L1.22048 3.98423C1.15323 4.09641 1.08873 4.21038 1.02691 4.32604L1.23304 4.96044L0.848477 4.68104C0.752883 4.88357 0.665445 5.09066 0.586852 5.30207L0.813945 6.00107H1.65213L0.974008 6.49373L1.23304 7.29088L0.554945 6.79822L0.148758 7.09335C0.108102 7.42016 0.0869141 7.75304 0.0869141 8.09088H8.08691C8.08691 3.67263 8.08691 3.15176 8.08691 0.0908813C6.50654 0.0908813 5.03332 0.549319 3.79266 1.34019ZM4.1026 7.29088L3.42451 6.79822L2.74641 7.29088L3.00545 6.49373L2.32732 6.00107H3.16551L3.42451 5.20391L3.68351 6.00107H4.5217L3.84357 6.49373L4.1026 7.29088ZM3.84357 4.16329L4.1026 4.96044L3.42451 4.46779L2.74641 4.96044L3.00545 4.16329L2.32732 3.67063H3.16551L3.42451 2.87348L3.68351 3.67063H4.5217L3.84357 4.16329ZM6.97216 7.29088L6.29407 6.79822L5.61598 7.29088L5.87501 6.49373L5.19688 6.00107H6.03507L6.29407 5.20391L6.55307 6.00107H7.39126L6.71313 6.49373L6.97216 7.29088ZM6.71313 4.16329L6.97216 4.96044L6.29407 4.46779L5.61598 4.96044L5.87501 4.16329L5.19688 3.67063H6.03507L6.29407 2.87348L6.55307 3.67063H7.39126L6.71313 4.16329ZM6.71313 1.83285L6.97216 2.63001L6.29407 2.13735L5.61598 2.63001L5.87501 1.83285L5.19688 1.34019H6.03507L6.29407 0.543038L6.55307 1.34019H7.39126L6.71313 1.83285Z" fill="#0052B4"/>
        </g>
    </g>
    <defs>
        <clipPath id="clip0_1988_8570">
            <path d="M0.0869141 8.09088C0.0869141 3.6726 3.66864 0.0908813 8.08691 0.0908813C12.5052 0.0908813 16.0869 3.6726 16.0869 8.09088C16.0869 12.5092 12.5052 16.0909 8.08691 16.0909C3.66864 16.0909 0.0869141 12.5092 0.0869141 8.09088Z" fill="white"/>
        </clipPath>
        <clipPath id="clip1_1988_8570">
            <rect width="16" height="16" fill="white" transform="translate(0.0869141 0.0908813)"/>
        </clipPath>
    </defs>
</svg>
